<?xml version="1.0" encoding="UTF-8"?>
<svg id="Layer_1" data-name="Layer 1" xmlns="http://www.w3.org/2000/svg" viewBox="0 0 633.07 386.08">
  <path d="M571.37,362.21c-77.16,47.5-161.64,13-229.05-8.38-2.99-.95-5.96-1.86-8.88-2.76-35.27-14.07-49.26-18.31-96.64-29.89-8.95-2.19-50.45-5.36-55.92-11.63l.02.05c-45.08-.77-107.08-5.98-142.52-24.51C17.64,274.28-.62,256.43.02,221.3c5.33-41.06,44.3-36.94,88.3-44.4,24.67-4.42,47.2-8.84,70.52-16.53,19.46-6.39,38.62-3.74,57.07,4.5l32.95,8.65c34.4-1,67.21-6.93,99.87-18.13,8.12-2.79,16.15-4.94,24.22-6.63C414.58,97.7,454.42,35.28,462.51,0l45.81,149.36c44.78,9.34,92.4,28.72,106.22,65.18,24.15,63.72,37.42,98.06-43.16,147.67Z"/>
</svg>