<?xml version="1.0" encoding="UTF-8"?>
<svg id="Layer_1" data-name="Layer 1" xmlns="http://www.w3.org/2000/svg" viewBox="0 0 476.02 435.43">
  <path d="M399.41,427.58c-86.1,28.2-95.52-25.86-156.08-62.37-2.69-1.62-5.36-3.2-8-4.76-1.22-.86-2.42-1.72-3.58-2.57-25.25-18.37-37.4-32.87-73.09-42.14-25.77,16.62-56.38,29.43-78.67,35.1-22.64,5.76-48.16,4.65-71.12-21.95-3.42-4.97-5.76-9.95-7.18-14.9-8.31-29.05,15.32-57.11,43.33-77.09,15.43-19.74,29.27-38.08,41.51-59.35,6.45-11.19,15.2-19.61,25.61-25.86,3.2-1.92,6.56-3.63,10.05-5.16,5.8-2.53,12.38-2.62,18.22-.18l49.68,20.82,4.58,1.92c33.69,7.04,66.98,8.93,101.36,5.65,14.04-20.76,31.13-100.61,30.35-174.74l101.55,87.37-15.89,105.26c29.83,17.01,52.83,50.65,63.03,97,.3,1.46,14.27,108.5-75.66,137.95Z"/>
</svg>