<?xml version="1.0" encoding="UTF-8"?>
<svg id="Layer_1" data-name="Layer 1" xmlns="http://www.w3.org/2000/svg" viewBox="0 0 905.28 987">
  <path d="M93.72,214.96l-5.49-10.97c.66-1.62,2.9-1.86,2.86-.3,1.93,2.78,2.89,3.98,5.5,6.44v-43.84s-3.79,1.4-3.79,1.4c-27.01,5.14-62.98,18.55-72.4,44.96l-6,16.82c-4.58,12.84.31,26.59,4.87,39.22l12.84,35.58c1.69,4.69,3.9,10.83,7.33,14.37,13.65,14.06,43.1,7.95,56.59-10.61,20.92-28.76,12.88-62.73-2.31-93.07ZM106.7,374.13l-19.5-32.68,1.64-1.29,7.74,9.51.14-32.47c-16.15,14.75-41.96,20.72-58.23,7.87-4.84-3.82-6.9-9.25-10.98-15.03l-5.99,5.72c-22.72,25.21-29.86,55.57-9.59,84.27l28.54,40.39c8.08,11.44,21.42,16.73,35.55,15.11,18.41-2.12,31.33-16.57,35.9-34.37,4-15.57,3.26-32.81-5.22-47.03ZM860.55,832.18c-13.38-46.3-24.25-91.12-29.26-139.23-3.43-65.57-6.69-129.45-15.33-194.67-6.2-46.85-16.62-91.25-18.99-138.44l-3.87-77.13c0-85.81-138.02-203.67-152.47-216.8l-.07,90.21h-.02s.14,139.38.14,139.38c-2.44,3.1-4.89,6.19-7.43,9.18l-19.43,22.83-.02.02c-.35.21-5.83,3.49-14.31,9.07-26.38,17.4-81.59,179.79-80.94,194.54h-167.42s-138.33-.02-138.33-.02c-20.03,0-36.87-4.36-54-14.33-8.27,5.08-17.97,9.24-25.91,14.74-.25.17-.51.35-.75.52-10.78,7.26-20.38,13.34-22.15,14.44-.03.02-.05.03-.09.05l-.12.07c-.05.04-.07.06-.07.06-11.7,3.48-22.04,8.39-30.78,15.53-8.87,7.29-12.35,18.37-7.87,28.44l.02.03,1.17,1.46c.04.35.09.7.13,1.05-.49-.82-.93-1.66-1.3-2.51,1.87,8.54,3.36,6.77,14.51,18.14-1.34-1.44-2.53-2.98-3.56-4.63l4.66,5.77c8.22,8.23,20.73,12.93,33.92,13.85,43.97,3.09,68.32-16.59,84.32-17.88,21.21-1.72,40.35-3.93,59.74-9.13,24.3,5.67,55.68,6.66,79.93,2.38l10.19,15.82c3.25,5.03,7.08,9.65,11.41,13.77l29.54,28.09c.47,3.43,1.49,6.81,3.1,10.14l16.45,33.94c23.11,47.61,39.31,87.16,89.37,115.84,7.5,4.29,12.02,11.17,16.64,18.69,9.69,20.87,15.75,42.36,20.2,65.37l16.68,86.17h347.1l-44.73-154.82ZM77.93.23c-18.19-.96-32.71.6-46,14.46-15.48,16.13-11.59,42.23,2.14,58.65,10.76,12.85,23.65,22.94,39.02,29.41l23.97,10.1V1.24L77.93.23Z"/>
</svg>