<?xml version="1.0" encoding="UTF-8"?>
<svg id="Layer_1" data-name="Layer 1" xmlns="http://www.w3.org/2000/svg" viewBox="0 0 459.55 396.45">
  <path d="M458.76,168.69h0c-2.96,7.15-7.18,20.04-11.94,36.18-16.76,56.7-40.19,153.55-38.59,182.47,2.05,37.14-32.49-51.23-32.49-51.23l8.06-79.49c-73.74,27.31-75.99-15.17-136.63-45.47-2.8-1.4-5.59-2.77-8.34-4.11-1.29-.76-2.55-1.53-3.78-2.29-19.85-12.16-32.28-22.76-52.38-30.02-23.33,30.43-66.2,59.03-95.47,71.61-21.46,9.25-46.84,12.15-73.68-10.52-28.48-30.05-7.42-68.3,21.3-96.51,12.14-21.93,22.93-42.2,31.69-65.13,2.51-6.55,5.83-12.42,9.83-17.66.02-.02.04-.05.05-.07,11.11-14.26,20.53-46.4,37.46-54.55,2.32-1.13,4.78-1.8,7.41-1.9,1.97.09,3.95.45,5.86,1.06.06.01.11.03.17.05l51.16,16.83,4.72,1.54c34.14,4.37,67.48,3.61,101.49-2.37,27.2-4.8,23.28,11.57,37.21,8.08,27.86-6.97,70.95,6.78,101.99,33.69,15.8,13.7,40.43,78.31,34.9,109.81Z"/>
  <path d="M458.76,168.7c-2.08,11.85-5.76,24.3-11.94,36.17,4.76-16.14,8.98-29.03,11.94-36.17Z"/>
</svg>