<?xml version="1.0" encoding="UTF-8"?>
<svg id="Layer_1" data-name="Layer 1" xmlns="http://www.w3.org/2000/svg" viewBox="0 0 847.09 153.31">
  <defs>
    <style>
      .cls-1 {
        fill: #fff;
      }
    </style>
  </defs>
  <g>
    <path class="cls-1" d="M7.62,92.09c-1.95,0-3.9-.74-5.39-2.23-2.98-2.98-2.98-7.8,0-10.77L79.09,2.23c2.98-2.98,7.8-2.98,10.77,0,2.98,2.98,2.98,7.8,0,10.77L13.01,89.86c-1.49,1.49-3.44,2.23-5.39,2.23Z"/>
    <path class="cls-1" d="M141.57,17.52l-39.13,39.13c-1.25,1.25-1.94,2.9-1.94,4.67v17.34c0,12.04-9.8,21.84-21.83,21.84h-17.35c-1.76,0-3.42.69-4.66,1.93l-39.13,39.13c-1.49,1.49-3.44,2.23-5.39,2.23s-3.9-.74-5.39-2.23c-2.97-2.97-2.97-7.79,0-10.77l39.13-39.13c4.13-4.12,9.61-6.39,15.44-6.39h17.35c3.63,0,6.6-2.96,6.6-6.6v-14.57l6.03-6.02c.98-.98.98-2.57,0-3.54l-3.48-3.47c1.01-1.88,2.3-3.63,3.85-5.18L130.8,6.75c2.97-2.98,7.79-2.98,10.77,0,2.97,2.97,2.97,7.8,0,10.77Z"/>
    <path class="cls-1" d="M68.83,153.31c-1.95,0-3.9-.74-5.39-2.23-2.98-2.97-2.98-7.8,0-10.77l76.86-76.85c2.98-2.97,7.8-2.97,10.77,0,2.98,2.98,2.98,7.8,0,10.77l-76.86,76.85c-1.49,1.49-3.44,2.23-5.39,2.23Z"/>
    <circle class="cls-1" cx="74.16" cy="52.63" r="4.91"/>
  </g>
  <g>
    <path class="cls-1" d="M187.31,37.13v-12.88h12.67v12.88h-12.67ZM187.31,118.21v-61.72c0-3.5,2.84-6.34,6.34-6.34h0c3.5,0,6.34,2.84,6.34,6.34v61.72c0,3.5-2.84,6.34-6.34,6.34h0c-3.5,0-6.34-2.84-6.34-6.34Z"/>
    <path class="cls-1" d="M220.58,118.87v-63.03c0-3.14,2.54-5.68,5.68-5.68h0c3.14,0,5.68,2.54,5.68,5.68v14.5h1.45v48.53c0,3.14-2.54,5.68-5.68,5.68h-1.45c-3.14,0-5.68-2.54-5.68-5.68ZM279.17,124.55c-3.14,0-5.68-2.54-5.68-5.68v-31.45c0-3.4-.3-6.72-.9-9.95-.6-3.24-1.65-6.15-3.17-8.75-1.52-2.59-3.56-4.66-6.13-6.2-2.57-1.54-5.81-2.31-9.71-2.31-2.99,0-5.72.51-8.2,1.51-2.48,1.01-4.61,2.55-6.41,4.62-1.79,2.07-3.17,4.68-4.13,7.85-.96,3.17-1.45,6.91-1.45,11.23l-8.27-2.62c0-7.12,1.3-13.26,3.89-18.43,2.59-5.17,6.25-9.15,10.95-11.95,4.71-2.8,10.28-4.2,16.7-4.2,4.87,0,9.01.77,12.44,2.31,3.42,1.54,6.26,3.58,8.51,6.13,2.25,2.55,4.01,5.37,5.27,8.47s2.15,6.23,2.65,9.4c.51,3.17.76,6.11.76,8.82v35.51c0,3.14-2.54,5.68-5.68,5.68h-1.45Z"/>
    <path class="cls-1" d="M295.94,55.61v-.51c0-2.73,2.21-4.94,4.94-4.94h40.12c2.73,0,4.94,2.21,4.94,4.94v.51c0,2.73-2.21,4.94-4.94,4.94h-40.12c-2.73,0-4.94-2.21-4.94-4.94ZM345.95,120.35c0,2.48-1.83,4.6-4.29,4.92-3.02.39-6,.53-8.93.42-4.32-.16-8.18-1.03-11.57-2.62-3.4-1.59-5.97-4.07-7.72-7.48-1.47-2.94-2.26-5.93-2.38-8.99-.12-3.05-.17-6.51-.17-10.37v-61.81c0-2.73,2.21-4.94,4.94-4.94h2.79c2.73,0,4.94,2.21,4.94,4.94v61.25c0,3.03.03,5.63.1,7.78.07,2.16.54,4.02,1.41,5.58,1.65,2.94,4.28,4.64,7.89,5.1,2.28.29,4.84.34,7.7.16s5.29,2.06,5.29,4.92v1.12Z"/>
    <path class="cls-1" d="M390.39,126.62c-7.35,0-13.75-1.62-19.22-4.86-5.47-3.24-9.71-7.76-12.74-13.57-3.03-5.81-4.55-12.59-4.55-20.36s1.49-15.16,4.48-21.11c2.98-5.95,7.16-10.54,12.54-13.78,5.37-3.24,11.69-4.86,18.94-4.86s13.86,1.73,19.12,5.2c5.26,3.47,9.21,8.39,11.85,14.78,2.13,5.16,3.27,11.12,3.41,17.9.06,2.74-2.21,4.97-4.95,4.97h-7.8v-4.61c-.14-9.05-1.96-15.79-5.48-20.22-3.51-4.43-8.76-6.65-15.74-6.65-7.53,0-13.24,2.4-17.12,7.2-3.88,4.8-5.82,11.7-5.82,20.7s1.94,15.39,5.82,20.15c3.88,4.75,9.45,7.13,16.7,7.13,4.82,0,9.01-1.1,12.57-3.31,2.6-1.61,4.8-3.76,6.58-6.43,1.22-1.83,3.55-2.55,5.63-1.85l2.82.96c3.01,1.02,4.36,4.62,2.62,7.28-2.65,4.06-6.03,7.37-10.14,9.92-5.81,3.6-12.32,5.41-19.53,5.41ZM363.04,90.93v-10.13h54.7v10.13h-54.7Z"/>
    <path class="cls-1" d="M437.37,119.61V55.1c0-2.73,2.21-4.94,4.94-4.94h1.48c2.73,0,4.94,2.21,4.94,4.94v15.24h1.45v49.27c0,2.73-2.21,4.94-4.94,4.94h-2.92c-2.73,0-4.94-2.21-4.94-4.94ZM495.21,124.55c-2.73,0-4.94-2.21-4.94-4.94v-32.19c0-3.4-.3-6.72-.9-9.95-.6-3.24-1.65-6.15-3.17-8.75-1.52-2.59-3.56-4.66-6.13-6.2-2.57-1.54-5.81-2.31-9.71-2.31-2.99,0-5.72.51-8.2,1.51-2.48,1.01-4.61,2.55-6.41,4.62-1.79,2.07-3.17,4.68-4.13,7.85-.96,3.17-1.45,6.91-1.45,11.23l-8.27-2.62c0-7.12,1.3-13.26,3.89-18.43,2.59-5.17,6.25-9.15,10.95-11.95,4.71-2.8,10.28-4.2,16.7-4.2,4.87,0,9.01.77,12.44,2.31,3.42,1.54,6.26,3.58,8.51,6.13,2.25,2.55,4.01,5.37,5.27,8.47s2.15,6.23,2.65,9.4c.51,3.17.76,6.11.76,8.82v36.25c0,2.73-2.21,4.94-4.94,4.94h-2.92Z"/>
    <path class="cls-1" d="M512.72,55.61v-.51c0-2.73,2.21-4.94,4.94-4.94h40.12c2.73,0,4.94,2.21,4.94,4.94v.51c0,2.73-2.21,4.94-4.94,4.94h-40.12c-2.73,0-4.94-2.21-4.94-4.94ZM562.74,120.35c0,2.48-1.83,4.6-4.29,4.92-3.02.39-6,.53-8.93.42-4.32-.16-8.18-1.03-11.57-2.62-3.4-1.59-5.97-4.07-7.72-7.48-1.47-2.94-2.26-5.93-2.38-8.99-.12-3.05-.17-6.51-.17-10.37v-61.81c0-2.73,2.21-4.94,4.94-4.94h2.79c2.73,0,4.94,2.21,4.94,4.94v61.25c0,3.03.03,5.63.1,7.78.07,2.16.54,4.02,1.41,5.58,1.65,2.94,4.28,4.64,7.89,5.1,2.28.29,4.84.34,7.7.16s5.29,2.06,5.29,4.92v1.12Z"/>
    <path class="cls-1" d="M577.96,119.61V30.3c0-2.73,2.21-4.94,4.94-4.94h48.11c2.73,0,4.94,2.21,4.94,4.94v2.79c0,2.73-2.21,4.94-4.94,4.94h-40.38v30.58h32.12c2.73,0,4.94,2.21,4.94,4.94v2.79c0,2.73-2.21,4.94-4.94,4.94h-32.12v38.32c0,2.73-2.21,4.94-4.94,4.94h-2.79c-2.73,0-4.94-2.21-4.94-4.94Z"/>
    <path class="cls-1" d="M649.74,37.13v-12.88h12.67v12.88h-12.67ZM649.74,119.61V55.1c0-2.73,2.21-4.94,4.94-4.94h2.79c2.73,0,4.94,2.21,4.94,4.94v64.51c0,2.73-2.21,4.94-4.94,4.94h-2.79c-2.73,0-4.94-2.21-4.94-4.94Z"/>
    <path class="cls-1" d="M683.08,119.61V55.1c0-2.73,2.21-4.94,4.94-4.94h1.41c2.73,0,4.94,2.21,4.94,4.94v13.04l-1.79-2.34c.87-2.3,2.02-4.42,3.44-6.37,1.42-1.95,3.01-3.55,4.75-4.79,1.93-1.52,4.1-2.68,6.51-3.48,2.41-.8,4.88-1.29,7.41-1.45.78-.05,1.55-.07,2.3-.06,2.67.03,4.79,2.28,4.79,4.95v1.81c0,2.72-2.2,5.01-4.92,4.94-1.14-.03-2.31.01-3.52.13-3.05.3-5.87,1.39-8.44,3.27-2.43,1.65-4.31,3.67-5.61,6.06-1.31,2.39-2.22,4.98-2.72,7.78-.51,2.8-.76,5.65-.76,8.54v32.46c0,2.73-2.21,4.94-4.94,4.94h-2.85c-2.73,0-4.94-2.21-4.94-4.94Z"/>
    <path class="cls-1" d="M760.3,126.55c-8.91,0-16.2-1.95-21.87-5.85-3.97-2.73-6.86-6.22-8.68-10.48-1.26-2.95.63-6.3,3.79-6.8l3.39-.54c2.17-.35,4.26.8,5.24,2.77,1.22,2.47,3.09,4.52,5.6,6.16,3.58,2.34,8.01,3.51,13.29,3.51,5,0,8.92-1.03,11.75-3.1s4.24-4.89,4.24-8.47c0-2.02-.47-3.67-1.41-4.96-.94-1.28-2.91-2.5-5.89-3.65-2.99-1.15-7.49-2.53-13.5-4.13-6.52-1.74-11.66-3.55-15.43-5.41-3.77-1.86-6.45-4.04-8.06-6.54-1.61-2.5-2.41-5.55-2.41-9.13,0-4.36,1.19-8.18,3.58-11.47,2.39-3.28,5.73-5.83,10.02-7.65,4.29-1.81,9.31-2.72,15.05-2.72s10.7.9,15.15,2.69c4.45,1.79,8.05,4.33,10.78,7.61,1.47,1.76,2.62,3.68,3.46,5.76,1.16,2.88-.69,6.1-3.74,6.65l-3.21.58c-2.27.41-4.64-.69-5.55-2.81-.97-2.24-2.51-4.1-4.62-5.6-3.17-2.25-7.26-3.47-12.26-3.65-4.73-.14-8.56.71-11.5,2.55-2.94,1.84-4.41,4.32-4.41,7.44,0,1.79.55,3.31,1.65,4.55,1.1,1.24,3.17,2.43,6.2,3.58,3.03,1.15,7.46,2.46,13.29,3.93,6.52,1.65,11.66,3.46,15.43,5.41,3.76,1.95,6.45,4.25,8.06,6.89,1.61,2.64,2.41,5.89,2.41,9.75,0,7.21-2.65,12.87-7.96,16.98-5.3,4.11-12.59,6.17-21.87,6.17Z"/>
    <path class="cls-1" d="M797.08,55.61v-.51c0-2.73,2.21-4.94,4.94-4.94h40.12c2.73,0,4.94,2.21,4.94,4.94v.51c0,2.73-2.21,4.94-4.94,4.94h-40.12c-2.73,0-4.94-2.21-4.94-4.94ZM847.09,120.35c0,2.48-1.83,4.6-4.29,4.92-3.02.39-6,.53-8.93.42-4.32-.16-8.18-1.03-11.57-2.62-3.4-1.59-5.97-4.07-7.72-7.48-1.47-2.94-2.26-5.93-2.38-8.99-.12-3.05-.17-6.51-.17-10.37v-61.81c0-2.73,2.21-4.94,4.94-4.94h2.79c2.73,0,4.94,2.21,4.94,4.94v61.25c0,3.03.03,5.63.1,7.78.07,2.16.54,4.02,1.41,5.58,1.65,2.94,4.28,4.64,7.89,5.1,2.28.29,4.84.34,7.7.16s5.29,2.06,5.29,4.92v1.12Z"/>
  </g>
</svg>