<?xml version="1.0" encoding="UTF-8"?>
<svg id="Layer_1" data-name="Layer 1" xmlns="http://www.w3.org/2000/svg" viewBox="0 0 1000 1000">
  <defs>
    <style>
      .cls-1 {
        fill: #231f20;
      }
    </style>
  </defs>
  <path class="cls-1" d="M102.91,581.68c-11.54,0-23.08-4.4-31.88-13.2-17.61-17.61-17.61-46.16,0-63.76L525.89,49.85c17.61-17.61,46.15-17.61,63.76,0,17.61,17.61,17.61,46.16,0,63.76l-454.86,454.86c-8.81,8.8-20.34,13.2-31.88,13.2ZM895.69,76.58c-17.63-17.63-46.17-17.63-63.75,0l-231.61,231.61c-9.2,9.15-16.86,19.52-22.81,30.66l20.6,20.56c5.77,5.77,5.77,15.19,0,20.97l-35.66,35.62v86.21c0,21.55-17.54,39.09-39.04,39.09h-102.66c-34.49,0-66.95,13.44-91.39,37.83l-231.61,231.61c-17.58,17.63-17.58,46.17,0,63.75,8.84,8.84,20.38,13.21,31.92,13.21s23.04-4.37,31.88-13.21l231.61-231.61c7.35-7.35,17.18-11.41,27.59-11.41h102.66c71.24,0,129.22-57.98,129.22-129.27v-102.62c0-10.46,4.06-20.24,11.45-27.64l231.61-231.61c17.59-17.58,17.59-46.17,0-63.75ZM497.1,930.78l454.87-454.86c17.61-17.61,17.61-46.16,0-63.76-17.6-17.6-46.15-17.61-63.76,0l-454.87,454.86c-17.61,17.61-17.61,46.16,0,63.76,8.81,8.81,20.34,13.21,31.88,13.21s23.08-4.4,31.88-13.2ZM496.72,319.09c-16.05,0-29.06,13.01-29.06,29.06s13.01,29.06,29.06,29.06,29.06-13.01,29.06-29.06-13.01-29.06-29.06-29.06Z"/>
</svg>