<?xml version="1.0" encoding="UTF-8"?>
<svg id="Layer_1" data-name="Layer 1" xmlns="http://www.w3.org/2000/svg" viewBox="0 0 277.61 793.25">
  <path d="M234.39,753.66c-62.73,82.69-219.56,18.53-232.39-35.65-12.84-54.18,40.32-113.64,42.49-118.19,8.11-16.91,14.23-34.63,18.26-53.14l1.78-13.41c1.21-9.1,1.09-17.63.68-26.74l-1.44-32c-.99-21.76-2.22-42.81.63-64.35,3.17-23.97,9.68-46.07,18.55-68.45,5.84-14.76,10.36-29.26,11.87-45.04,1.5-15.72-2.19-29.3-5.79-44.17l-6.29-25.9-4.21-18.8-3.78-19.18-10.01-24.96c-7.09-17.68-12.26-35.44-13.47-54.52l-.03-34.12c1.88-24.64,5.88-53.09,25.02-68.86,9.5-7.83,27.22-8.63,32.08-.02,5.86,10.38,8.5,21.73,11.68,33.19l3.87,13.97c2.84,10.26,4.59,19.94,9.95,29.19l17.59,30.37,8.24,11.86c5.94,8.56,11.66,16.96,15.05,26.93l9.41,27.71,12.21,34.75,19.28,39.58,21.9,42.09,8.34,19.56c4.11,13.49,4.25,27.07,5.38,40.89l2.41,29.33,3.16,42.01,1.8,19.99,3.72,49.11,1.14,17.83.91,17c.48,9.2.31,17.73,2.71,26.45,8.48,110.39,30.03,112.99-32.7,195.69Z"/>
</svg>