<?xml version="1.0" encoding="UTF-8"?>
<svg id="Layer_1" data-name="Layer 1" xmlns="http://www.w3.org/2000/svg" viewBox="0 0 104.22 479.67">
  <defs>
    <style>
      .cls-1 {
        fill: none;
      }

      .cls-2 {
        fill: #fff;
      }
    </style>
  </defs>
  <path class="cls-2" d="M97.32,306.33l-17.79-29.81,1.5-1.18,7.06,8.68.12-29.62c-14.73,13.46-38.28,18.9-53.12,7.18-4.41-3.49-6.29-8.44-10.02-13.71l-5.46,5.21c-20.73,23-27.24,50.7-8.75,76.87l26.03,36.84c7.37,10.44,19.54,15.26,32.43,13.78,16.8-1.93,28.58-15.11,32.75-31.35,3.65-14.2,2.98-29.93-4.76-42.9ZM86.48,403.88l-7.32-8.69c3.82-1.12,4.88,1.15,8.93,4.07l.14-20.46c-12.27,11.53-33.5,10.16-46.28-.47-16.17,1.42-29.34,24.04-30.64,39.06-.81,9.41-.35,18.74,4.46,26.48s9.47,14.56,16.38,19.6c18.64,13.6,40.43,25.15,57.27,6.35,17.18-19.19,15.45-47.75-2.94-65.94Z"/>
  <path d="M97.32,306.33c7.74,12.97,8.41,28.7,4.76,42.9-4.17,16.24-15.95,29.42-32.75,31.35-12.89,1.48-25.06-3.34-32.43-13.78l-26.03-36.84c-18.49-26.18-11.98-53.87,8.75-76.87l5.46-5.21c3.72,5.27,5.6,10.23,10.02,13.71,14.84,11.72,38.38,6.27,53.12-7.18l-.12,29.62-7.06-8.68-1.5,1.18,17.79,29.81Z"/>
  <path d="M86.48,403.88c18.4,18.19,20.13,46.75,2.94,65.94-16.84,18.81-38.64,7.25-57.27-6.35-6.9-5.04-11.78-12.19-16.38-19.6s-5.27-17.07-4.46-26.48c1.3-15.02,14.46-37.64,30.64-39.06,12.78,10.62,34.01,11.99,46.28.47l-.14,20.46c-4.05-2.93-5.11-5.2-8.93-4.07l7.32,8.69Z"/>
  <polyline class="cls-1" points="92.19 2.05 88.15 1.86 82.11 1.57"/>
  <polyline class="cls-1" points="92.19 101.62 88.12 100.4 84.27 99.24"/>
  <polyline class="cls-1" points="92.19 115.25 88.12 116.74 84.65 118.01"/>
  <path d="M85.49,161.13l-5.01-10c.61-1.48,2.65-1.7,2.61-.28,1.76,2.54,2.64,3.63,5.02,5.88v-39.99s-3.46,1.27-3.46,1.27c-24.64,4.69-57.45,16.93-66.04,41.02l-5.47,15.34c-4.18,11.71.28,24.26,4.44,35.78l11.71,32.45c1.54,4.28,3.56,9.88,6.69,13.11,12.45,12.83,39.31,7.25,51.62-9.68,19.08-26.23,11.75-57.22-2.11-84.9ZM52.12,85.7l32.15,13.54,3.85,1.16.03-98.54-6.04-.29L56.16.19c-15.17-.8-27.28.5-38.37,12.06-12.91,13.45-9.66,35.22,1.79,48.92,8.97,10.72,19.72,19.13,32.54,24.53Z"/>
</svg>