<?xml version="1.0" encoding="UTF-8"?>
<svg id="Layer_1" data-name="Layer 1" xmlns="http://www.w3.org/2000/svg" viewBox="0 0 624.44 811.55">
  <path d="M617.6,799.85l-24.25-34.66-29.52-42.43-25.06-36.96-16.78-26.21-13.22-20.98c-12.77-20.28-25.61-40.31-33.54-63.01l-4.85-17.63c-2.4-8.72-2.23-17.25-2.71-26.45l-.91-17-1.14-17.83-3.72-49.11-1.8-19.99-3.16-42.01-2.41-29.33c-1.13-13.82-1.27-27.4-5.38-40.89l-8.34-19.56-21.9-42.09-19.28-39.58-12.21-34.75-9.41-27.71c-3.39-9.97-9.11-18.37-15.05-26.93l-8.24-11.86-17.59-30.37c-5.36-9.25-7.11-18.93-9.95-29.19l-3.87-13.97c-3.18-11.46-5.82-22.81-11.68-33.19-4.86-8.61-22.58-7.81-32.08.02-19.14,15.77-23.14,44.22-25.02,68.86l.03,34.12c1.21,19.08,6.38,36.84,13.47,54.52l10.01,24.96,3.78,19.18,4.21,18.8,6.29,25.9c3.6,14.87,7.29,28.45,5.79,44.17-1.51,15.78-6.03,30.28-11.87,45.04-8.87,22.38-15.38,44.48-18.55,68.45-2.85,21.54-1.62,42.59-.63,64.35l1.44,32c.41,9.11.53,17.64-.68,26.74l-1.78,13.41c-5.12,23.49-13.6,45.72-25.22,66.62-1.58-5.24,1.76-8.77,3.08-12.75l11.5-34.7c-7.07,6.62-11.15,13.5-18.74,18.43-9.16,5.95-19.61,10.71-30.69,11.99l-10.15,1.17-189.28-.3-6.54-.02,2.68,3.38,11.41,12.1,24.48,25.53,30.38,27.51,8.09,6.89,19.78,15.3,32,23.96,31.72,27.16,13.54,13.65,28.15,26.74c10.57,10.05,19.83,20.55,27.69,32.21h394.52l-6.84-11.7Z"/>
</svg>