<?xml version="1.0" encoding="UTF-8"?>
<svg id="Layer_1" data-name="Layer 1" xmlns="http://www.w3.org/2000/svg" viewBox="0 0 616.85 616.85">
  <defs>
    <style>
      .cls-1 {
        fill: #010101;
      }
    </style>
  </defs>
  <g>
    <g>
      <path d="M449.87,317.52c-.15-.1-.3-.21-.44-.32-1.04-.74-2.04-1.45-2.99-2.08-.31-.2-.61-.4-.9-.6-.06-.04-.12-.07-.18-.11-.25-.17-.51-.33-.76-.48-.02-.02-.05-.03-.07-.05l.02,16.18h0v39.91s0,49.04,0,49.04c.67.6,1.43,1.1,2.24,1.49,1.23.59,2.45.75,3.63.62l.02-24.97v-9.65s0-4.26,0-4.26l.03.06v-34.53s0,0,0,0v-29.85c-.19-.13-.38-.27-.57-.4Z"/>
      <path d="M402.33,207.04h-27.18c-2.97,0-5.38,2.41-5.38,5.38s2.41,5.38,5.38,5.38h27.18c2.97,0,5.38-2.41,5.38-5.38s-2.41-5.38-5.38-5.38Z"/>
    </g>
    <g id="Generative_Object" data-name="Generative Object">
      <path d="M455.63,285.31c-.09.02-.2.04-.29.06l-.02-6.07.31,6.01Z"/>
      <path d="M371.23,455.87l-14.14,24.93c-7.24,10.87-16.4,19.68-27.03,27.51-8.53,6.15-14.69,13.61-20.37,22.94-10.94,17.98-20.62,35.89-30.39,54.69h-.01c-.61.26-27.46,11.33-60.8,2.84-33.73-8.59-47.92-20.66-47.92-20.66l8.44-10.84c21.08-27.13,41.8-53.55,61.43-81.66,14.29-20.43,20.53-30.38,22.73-56.14l3.29-38.66c.51-6.03,2.01-11.35,5.16-16.67,5.26-8.92,9.42-17.99,12.65-27.81,2.75-8.36,5.91-16.03,10.73-23.51,3.64-5.64,5.17-11.82,6.67-18.18l2.38-10.08c.63-2.66,2.84-4.57,5.75-4.43,6.03.28,10.09,4.55,12.43,10.74,3.04,7.97,3.25,19.15,1.22,29.1-.53,2.64-1.22,5.2-2.05,7.59l-3.01,8.59-4.15,22.92,9.3-9.03.04,78.21c0,4.04.27,8.41,2.27,13,3.91,8.99,12.4,14.59,22.17,14.61h23.21Z"/>
      <path d="M454.17,320.51v41.01c-.4-.36-.81-.73-1.23-1.07-.84-.7-1.68-1.39-2.5-2.09v.27l-1.19-1.12-.88,1.19v-2.12c-.61-.52-1.21-1.04-1.8-1.58-.4-.35-.8-.71-1.19-1.07-.29-.25-.57-.5-.85-.77-1.18-1.08-2.33-2.18-3.45-3.32-.38-.38-.76-.76-1.12-1.16-.16-.14-.3-.29-.42-.44-.4-.42-.79-.84-1.17-1.26-.45-.48-.89-.98-1.31-1.47-.38-.44-.76-.89-1.12-1.34-.17-.2-.34-.4-.49-.61-.09-.11-.18-.23-.27-.35-.24-.3-.48-.6-.69-.9-.2-.25-.39-.51-.58-.77-.18-.22-.34-.45-.49-.68-.17-.23-.34-.48-.5-.71-.21-.31-.42-.62-.62-.92-.34-.5-.66-1.02-.98-1.53-.06-.09-.11-.18-.17-.27-.33-.53-.64-1.07-.95-1.62-.19-.33-.36-.64-.54-.98-.15-.27-.29-.54-.43-.81-.32-.61-.62-1.22-.91-1.85-4.08-8.69-1.36-17.85,5.77-20.24,1.08-.36,2.12-.53,3.13-.53.24,0,.48,0,.73.03.03,0,.07,0,.09,0,.17,0,.33.03.49.06.08,0,.17.03.25.04.19.03.36.07.54.1.76.17,1.53.42,2.29.74.24.1.49.21.74.34.24.11.48.23.74.36.21.11.43.22.64.35.26.15.53.31.79.47.03.02.06.03.07.05.25.15.51.31.76.48.06.04.12.07.18.11.3.2.6.39.9.6.95.63,1.95,1.34,2.99,2.08.14.1.29.21.44.32.19.14.37.27.57.41,1,.7,2.03,1.44,3.12,2.17.21.14.4.27.61.41Z"/>
      <path class="cls-1" d="M456.54,417.9c-.66.66-1.48,1.34-2.42,1.91-1.12.67-2.39,1.18-3.74,1.31-1.17.13-2.4-.03-3.63-.62-.81-.39-1.57-.9-2.24-1.49-3.6-3.17-5.13-8.9-3.8-13.46.73-2.48,2.03-5.34,3.8-7.28.59-.64,1.22-1.18,1.91-1.58,1.17-.67,2.57-.78,3.97-.55,1.31.2,2.63.72,3.73,1.34.75.42,1.4.9,1.9,1.36,4.64,4.34,4.48,15.06.51,19.04Z"/>
      <path class="cls-1" d="M456.06,391.51c-.61.42-1.24.83-1.89,1.2-3.56,2.06-7.56,3.28-10.03,1.98-10.07-5.32-1.28-23.74,5.5-32.98,1.76,1.65,3.25,3.48,4.53,5.42,2.79,4.27,4.51,9.14,5.73,14.12.95,3.9-.55,7.98-3.84,10.27Z"/>
      <path d="M450.43,305.3v7.36s0,5.26,0,5.26c-.19-.13-.38-.27-.57-.4-.15-.1-.3-.21-.44-.32-1.04-.74-2.04-1.45-2.99-2.08-.31-.2-.61-.4-.9-.6-.06-.04-.12-.07-.18-.11-.25-.17-.51-.33-.76-.48-.02-.02-.05-.03-.07-.05l-.09-96.05c0-8.5-6.52-15.63-15.08-15.63l-80.85-.03c-8.87,0-15.29,7.33-15.29,16.12l.03,212.18c0,8.8,6.55,15.81,15.08,15.85h81.13c3.51-.02,6.67-1.2,9.18-3.21,3.62-2.89,5.89-7.45,5.89-12.64v-11.47c.67.6,1.43,1.1,2.24,1.49,1.23.59,2.45.75,3.63.62v7.12c.05,4.15-.3,7.8-1.92,11.53-.09.23-.21.47-.32.69-.07.17-.15.33-.23.48,0,0-.02.03-.03.04-.12.25-.25.48-.38.73-.02.02-.03.05-.05.07-.11.2-.23.4-.35.61-.02.04-.04.07-.06.1-.03.04-.06.08-.08.12-.09.16-.2.32-.29.46-.19.29-.38.55-.58.82-.05.07-.1.14-.16.21-.19.26-.39.51-.6.75-.15.19-.32.37-.48.56-.13.14-.27.29-.4.44,0,.02-.04.03-.05.06-.04.03-.07.07-.11.1-.18.19-.35.36-.54.54-.1.1-.21.2-.32.3-.22.21-.45.4-.68.6-.09.07-.19.15-.29.23h0c-.17.14-.34.27-.5.4-.23.17-.47.34-.71.51-.23.17-.48.32-.73.48-.2.13-.4.24-.61.36-.31.17-.62.34-.92.5-2.78,1.41-5.93,2.19-9.29,2.2h-81.68c-8.39-.02-15.5-4.89-18.75-12.36-1.61-3.72-1.96-7.38-1.96-11.53l-.07-107.09c-.02.1-.04.21-.07.31v-17.51,1.43c-.75-.37-1.24-.89-1.24-2l.03-16.47c0-.87.51-1.24,1.21-1.45v-2.11c-.75-.36-1.24-.89-1.24-1.99l.03-16.48c0-.9.56-1.27,1.3-1.48v-8.1c-.35-.17-1.34-.41-1.43-.87l-.03-8.81c0-.57,1.03-.86,1.48-.93l.12-27.4c.06-11.87,9.43-20.98,21.57-20.98h79.88c12.07,0,20.82,9.14,21.44,20.87l.13,55.8c.4-.09,1.15.28,1.15.65l.04,13,.06,17.3c0,.52-.78,1.05-1.24,1.37Z"/>
      <path class="cls-1" d="M453.56,320.1l-3.12,1.45-.25.11-.75-4.46c.14.1.29.21.44.32.19.13.38.27.57.4h0c1,.71,2.03,1.45,3.12,2.18Z"/>
      <path class="cls-1" d="M459.35,288.65c-1.19,0-2.38.15-3.52.45l-.03-.45h3.54Z"/>
      <path class="cls-1" d="M473.17,303.16c-.02.07-.05.13-.07.2l-.74-.63c.27.14.54.29.8.44Z"/>
    </g>
    <path d="M448.37,423.89c.43.06,0,.08,0,.08v-.08Z"/>
    <path d="M322.23,290.88c3.04,7.97,3.24,19.14,1.22,29.1v-12.89c-.81-1.01-1.24-2.27-1.24-3.71l.02-12.5Z"/>
    <path d="M454.13,397.5v22.31c-2.1,1.26-4.75,1.96-7.38.7-5.17-2.48-7.62-9.54-6.03-14.95.97-3.31,2.96-7.28,5.71-8.86,2.27-1.3,5.42-.49,7.7.79Z"/>
    <path d="M454.17,320.51v41.01c-.4-.36-.81-.73-1.23-1.07-.84-.7-1.68-1.39-2.5-2.09-.7-.59-1.39-1.17-2.07-1.77-.61-.52-1.21-1.04-1.8-1.58-.4-.35-.8-.71-1.19-1.07-.29-.25-.57-.5-.85-.77-1.18-1.08-2.33-2.18-3.45-3.32-.38-.38-.76-.76-1.12-1.16-.16-.14-.3-.29-.42-.44-.4-.42-.79-.84-1.17-1.26-.45-.48-.89-.98-1.31-1.47-.38-.44-.76-.89-1.12-1.34-.17-.2-.34-.4-.49-.61-.09-.11-.18-.23-.27-.35-.24-.3-.48-.6-.69-.9-.2-.25-.39-.51-.58-.77-.18-.22-.34-.45-.49-.68-.17-.23-.34-.48-.5-.71-.21-.31-.42-.62-.62-.92-.34-.5-.66-1.02-.98-1.53-.06-.09-.11-.18-.17-.27-.33-.53-.64-1.07-.95-1.62-.19-.33-.36-.64-.54-.98-.15-.27-.29-.54-.43-.81-.32-.61-.62-1.22-.91-1.85-4.08-8.69-1.36-17.85,5.77-20.24,1.08-.36,2.12-.53,3.13-.53.24,0,.48,0,.73.03.03,0,.07,0,.09,0,.17,0,.33.03.49.06.08,0,.17.03.25.04.19.03.36.07.54.1.76.17,1.53.42,2.29.74.24.1.49.21.74.34.24.11.48.23.74.36.21.11.43.22.64.35.26.15.53.31.79.47.03.02.06.03.07.05.25.15.51.31.76.48.06.04.12.07.18.11.3.2.6.39.9.6.95.63,1.95,1.34,2.99,2.08.14.1.29.21.44.32.19.13.38.27.57.4h0c1,.71,2.03,1.45,3.12,2.18.21.14.4.27.61.41Z"/>
    <path d="M454.17,367.13v25.59c-3.56,2.06-7.56,3.28-10.03,1.98-10.07-5.32-1.28-23.74,5.5-32.98,1.76,1.65,3.25,3.48,4.53,5.42Z"/>
    <path d="M473.17,303.16c-.02.07-.05.13-.07.2l-.74-.63c.27.14.54.29.8.44Z"/>
    <path d="M531.71,354.18l-9.85-8.54-29.82-25.86c1.76,1.32,3.53,2.67,5.32,4.04l26.4,20.22c1.31,1.01,2.49,2.1,3.53,3.27,1.86,2.07,3.31,4.37,4.42,6.87Z"/>
    <path d="M472.37,302.72c.27.14.54.29.8.44-.02.07-.05.13-.07.2l-.74-.63Z"/>
    <path d="M526.72,577.16h-4.53s-19.38-50.86-24.92-58.54c-3.97-4.6-8.45-8.08-13.16-11.85-9.54-7.62-16.35-17.28-21.57-28.24l-12.07-25.32-3.07-5.04.25-.27c.18-.2.35-.42.55-.64.22-.28.46-.56.67-.85.08-.1.16-.21.21-.29.22-.31.45-.62.67-.94.12-.19.24-.37.35-.57l.3-.48.02-.04c.07-.12.32-.54.32-.54.16-.28.3-.56.45-.85l.04-.07c.09-.19.18-.36.27-.55.14-.28.26-.56.37-.81,2.03-4.68,2.27-9.22,2.23-13.01v-4.29l.02-1.01c2.14-.95,3.63-2.31,4.39-3.09,2.46-2.47,3.88-6.78,3.79-11.53-.08-4.81-1.67-9.02-4.36-11.53-.63-.6-1.44-1.18-2.35-1.7.86-.49,1.57-.96,2.06-1.31,4.2-2.91,6.19-8.22,4.97-13.23-2.28-9.32-5.8-15.97-11.08-20.92l-1.11-1.03v-.27c.82.7,1.66,1.39,2.5,2.09.42.34.83.71,1.23,1.07v-41.01c3.87,2.6,8.45,5.28,14.21,7.36,5.17,1.86,8.79,5.53,11.81,10.01l10.03,14.87c6.03,8.95,13.79,16.62,22.99,21.87-12.07-11.12-21.24-23.03-29.34-36.48-3.94-6.55-9.48-11.26-16.61-13.75-3.65-1.78-7.25-3.08-10.82-5.64,5.21-2.61,9.42-5.73,13.07-9.73.44-.48.87-.96,1.29-1.46l.1-.11.08-.12c.22-.31.43-.62.62-.94,7.52,4.04,13.98,8.57,20.44,13.42,1.76,1.32,3.53,2.67,5.32,4.04l26.4,20.22c1.31,1.01,2.49,2.1,3.53,3.27,1.86,2.07,3.31,4.37,4.42,6.87.9,2.01,1.59,4.15,2.06,6.36l2.65,12.29,14.2,54.95c4.01,15.54,10.23,29.01,19.22,42.32l42.88,60.45h0c-18.96,29.05-51.31,46.58-86,46.6Z"/>
    <path d="M467.94,305.15c-.35.42-.72.84-1.08,1.24-3.4,3.75-7.38,6.73-12.69,9.32v-8.69c.65-.74,1.23-1.75,1.23-3.09l-.05-14.71c.16-.05.32-.09.48-.12,1.14-.3,2.32-.45,3.52-.45,2.69,0,5.4.77,7.64,2.5,4.48,3.46,4.15,9.49.95,14Z"/>
    <path d="M459.35,288.65c-1.19,0-2.38.15-3.52.45l-.03-.45h3.54Z"/>
    <path d="M528.5,33.69v10.81l-.02,279.52h0v10l-.07,1.74-.28,7.57c-.85-.89-1.78-1.71-2.79-2.48l-3.85-2.95-1.2-.92-5.46-4.19-6.69-5.13h7.85c1.76,0,3.19-1.44,3.19-3.2V43.41c0-1.76-1.43-3.19-3.19-3.19H28.7c-1.77,0-3.2,1.43-3.2,3.19v281.06c0,1.76,1.43,3.2,3.2,3.2h254.92c-1.02,3.15-2.12,6.26-3.29,9.32-3.05,7.89-6.67,15.48-11.18,23l-100.23,9.14-46.11,3.95c.77-3.63,2.09-10.06,6.29-10.65l119.94-14.34c4.29-.51,6.55-6.13,7.14-9.83l-229.17-.12h-8.07c-.44,0-.86-.1-1.23-.29,0,0-.02,0-.03-.02-.91-.46-1.54-1.41-1.54-2.5v-18.22l.04-272.18h0c-.03-.15-.04-.29-.04-.43v-10.8c0-1.54,1.26-2.8,2.8-2.8h8.07c.15,0,.29,0,.43.04l490.2-.04h8.08c1.54,0,2.8,1.26,2.8,2.8Z"/>
  </g>
  <path d="M279.3,585.94h-.01s0,0,0,0h.01Z"/>
</svg>