<?xml version="1.0" encoding="UTF-8"?>
<svg id="Layer_1" data-name="Layer 1" xmlns="http://www.w3.org/2000/svg" viewBox="0 0 616.85 616.85">
  <defs>
    <style>
      .cls-1 {
        fill: #010101;
      }
    </style>
  </defs>
  <g id="Generative_Object" data-name="Generative Object">
    <path d="M362.04,398.7h-86.74c2.27-1.8,4.19-2.95,5.76-2.96l74.94-.3c4.91-.02,8.88-1.22,13.96-3.27.06,1.79.17,3.58.33,5.36-2.61.76-5.38,1.17-8.25,1.17Z"/>
    <path d="M391.46,316.72h0s-.03,48.02-.03,48.02c.06,5.9-.43,11.09-2.73,16.38-2.77,6.38-7.52,11.43-13.46,14.45-.26-3.02-.43-6.11-.51-9.27-.15-5.96-3.09-11.52-5.25-16.83-4.6-11.31-12.32-15.71-17.58-25.36-7.89-.06-15.2-2.58-21.11-7.61l-15.14-12.9c-4.9-4.16-7.89-10.15-8.82-16.57-1.23-8.58,3.17-17.22,11.59-19.33,10.57-2.64,24.41,7.36,45.14,8.32,7.54.35,13.95,3.54,18.71,9.4l9.19,11.3Z"/>
    <path d="M391.51,206.3v44h-.01v.91s.01,48.18.01,48.18l-.04-.07v8.91h-.01s-2.98-3.67-2.98-3.67v-20.55l-.04-79.31c1.06.49,2.09,1.02,3.07,1.6Z"/>
    <path d="M559.91,557.39c-7.69,7.3-17.07,12.69-27.19,16.77-23.77,9.59-49.72,12.5-75.03,8.31-3.41-.56-8.13-1.98-9.67-5.18-5.35-11.09-10.03-22.12-16.67-32.47-4.13-6.42-9.46-11.38-16.04-14.92-7.43-3.99-12.91-9.53-18.47-15.96-12.89-14.9-23.35-30.84-31.18-48.79l-6.14-10.74c-2.78-4.86-4.78-9.75-5.41-15.6l-3.07-2.53-9.93-11.15c-1.72-1.94-3.19-3.72-4.61-6.34-2.48,1.12-4.61,1.4-7.14,1.23l-16.63-1.11c-6.51,2.93-13.04,5.13-19.77,7.64l-16.91,8.77c-4.04,2.09-8.48,2.36-13.15,1.93-7.44-.7-13.48-7.27-12.45-14.91.53-3.94,3.54-7.14,6.83-9.17,5.64-3.5,10.47-7.95,14.48-11.47h90.28c2.95,0,5.81-.39,8.54-1.14,2.27,20.21,10.05,39.99,20.48,57.39,5.9,8.83,11.08,18.13,20.34,24.62-18.72-27.37-32.37-51.91-35.85-83.81,6.98-3.22,12.64-8.94,15.9-16.44,2.71-6.24,3.03-12.15,2.98-17.58l.02-44.33,6.05,7.43c7.14,8.79,14.99,16.37,24.53,22.49l17.94,11.5c-1.09-3.69-4.2-5.3-6.62-7.38l-20.01-17.2-18.3-20.97-3.58-4.39v-7.94l.03-50.65v-3.04s.02-25.13.02-25.13v-16.88c4.97,3.59,8.85,8.34,12.03,13.91l14.79,25.89c7.8,13.65,15.35,26.55,24.63,39.22,11.69,15.96,11.06,30.13,18.18,47.85,6.22,15.5,11.54,30.65,16.65,46.46l12.18,37.75c5.52,17.11,13.52,32.77,22.69,48.23l15.42,26,29.27,54.1c1.74,3.23,2.54,6.9-.44,9.73Z"/>
    <path d="M245.89,401.7h18.8c-3.76,3.2-7.76,6.05-11.87,8.92-8.44,5.91-10,17.07-3.08,25l-10.18,24.42c-6.39,17.64-14.94,33.78-26.43,48.54-4.13,5.3-8.71,9.48-14.08,13.38-13.3,9.69-17.88,24.18-23.91,39.26l-6.65,16.64c-1.3,3.25-6.57,4.1-9.85,4.69-18.32,3.26-36.66,2-54.78-2.22-15.69-3.64-30.17-9.79-43.11-19.41-2.4-1.79-6.31-5.03-5.75-8.12,1.04-5.71,3.87-10.48,6.28-15.66l26.33-56.56c12.32-24.19,22.66-48.66,29.05-75.33,5.31-22.15,10.18-43.6,17.26-65.01,4.48-13.58,8.07-26.65,10.58-40.73,1.4-7.86,5.6-14.69,10.25-21.24,9.17-12.87,17-25.59,24.4-39.45l18.12-30.25c4.5-7.51,9.45-11.48,15.98-15.26v19.59h.1s.04,59.7.04,59.7c-4.97,2.54-8.99,6.22-11.87,11.1l-9.12,15.47c-5.7,9.73-10.99,19.35-18.33,27.92l-19.46,22.7c-.76.89-1.79,1.89-.43,3.02,7.99-7.13,16.11-14.22,23.29-22.21l7.22-9.06c7.22-10.62,13.57-21.49,19.85-32.64,2.38-4.21,5.29-7.43,8.85-9.91l.05,85.75c0,5.5.37,11.43,3.04,17.58,2.02,4.66,4.98,8.63,8.6,11.74-2.03,27.21-12.61,53.35-25.61,77.92,5.67-4.35,8.59-10.44,11.9-16.4,9.98-17.96,16.09-37.56,18.63-58.05,4.7,2.68,10.13,4.16,15.89,4.17Z"/>
    <path d="M271.16,395.54c-1.02,1.1-2.06,2.15-3.12,3.16h-22.15c-5.73,0-11.04-1.61-15.51-4.45.24-2.24.44-4.48.59-6.73,6.56,5.14,13.89,7.89,21.92,7.93l18.27.09Z"/>
    <path d="M277.53,283.97c-6.13,12.41-21.34,31.48-35.13,34.31l-5.69,11.17c-7.33,11.05-11.62,23.12-12.73,36.54,1.3,8.14,1.7,16.21,1.35,24.18-2.53-2.56-4.6-5.61-6.1-9.05-2.3-5.29-2.79-10.48-2.79-16.38l-.05-87.61c1.58-.86,3.28-1.61,5.1-2.27,18.03-6.56,27.08-16.51,38.42-20.61,6.71-2.43,14.16.87,17.69,7.04,3.97,6.92,3.59,15.26-.07,22.68Z"/>
  </g>
  <g>
    <path class="cls-1" d="M393.26,187.97l-.13-43.08c0-.53-1.06-1.06-1.64-.93l-.18-79.34c-.87-16.67-13.32-29.68-30.48-29.68h-113.57c-17.27,0-30.6,12.96-30.68,29.84l-.17,38.96c-.65.1-2.11.52-2.1,1.32l.04,12.53c.12.65,1.53.99,2.01,1.23l.02,11.53c-1.05.3-1.85.83-1.85,2.11l-.04,23.42c0,1.57.7,2.31,1.75,2.83v2.74s.01.25.01.25c-.99.31-1.72.84-1.72,2.07l-.04,23.42c0,1.57.7,2.31,1.75,2.83v-2.03s.01,24.91.01,24.91c.04-.14.07-.29.1-.44l.09,152.28c0,5.9.49,11.09,2.79,16.38,4.62,10.63,14.72,17.55,26.66,17.58h116.15c4.77,0,9.25-1.12,13.2-3.13.44-.23.88-.47,1.31-.71.29-.17.58-.34.86-.52.35-.22.7-.44,1.04-.68.34-.23.68-.48,1.01-.73.24-.18.48-.36.71-.55t.02,0c.14-.12.28-.23.41-.34.33-.28.65-.56.96-.85.16-.13.31-.28.46-.42.26-.25.51-.5.76-.77.05-.04.11-.1.16-.15.02-.03.05-.05.07-.08.19-.2.38-.42.57-.62.23-.26.46-.53.68-.79.29-.35.58-.71.85-1.08.08-.09.15-.19.22-.29.28-.38.55-.76.82-1.16.14-.21.28-.43.41-.65.04-.06.08-.12.12-.18.03-.05.06-.09.08-.14.18-.29.35-.58.51-.87.02-.03.04-.07.06-.1.19-.34.37-.68.55-1.03l.03-.06c.12-.23.23-.45.34-.69.16-.32.31-.65.45-.98,2.3-5.29,2.79-10.48,2.73-16.38l.03-48.02v-11.34s.01-6.06.01-6.06l.03-46.02v-28.17s.01-24.75.01-24.75v-10.46c.63-.45,1.75-1.21,1.75-1.95ZM383.09,367.92c0,7.38-3.24,13.87-8.38,17.97-3.58,2.85-8.08,4.54-13.06,4.56h-115.37c-12.13-.05-21.44-10.02-21.44-22.53l-.03-301.69c0-12.51,9.13-22.93,21.74-22.93l114.97.04c12.17,0,21.43,10.13,21.44,22.22l.15,159.57h-.01v81.3s0,61.49,0,61.49Z"/>
    <polygon class="cls-1" points="388.51 225.13 391.51 225.13 391.51 250.3 391.5 250.3 391.51 251.21 391.51 253.3 388.5 253.3 388.5 250.3 388.51 225.13"/>
    <polygon class="cls-1" points="394.51 225.13 394.51 253.3 394.49 253.3 394.5 250.26 394.51 225.13"/>
    <polygon class="cls-1" points="391.51 225.13 391.51 250.3 391.5 250.3 391.5 250.28 391.51 225.13"/>
    <polygon class="cls-1" points="391.5 250.28 391.51 250.28 391.51 250.3 391.5 250.3 391.51 251.21 391.51 299.39 391.47 299.32 391.47 305.36 388.48 300.13 388.48 300.12 388.47 300.11 388.48 284.77 388.48 284.01 388.5 253.3 388.5 250.3 391.5 250.28"/>
    <polygon class="cls-1" points="394.51 251.17 394.51 310.72 394.46 310.63 394.45 310.61 394.45 303.94 394.46 303.95 394.49 253.3 394.5 250.26 394.51 251.17"/>
    <polygon class="cls-1" points="391.51 251.21 391.51 299.39 391.47 299.32 391.5 253.3 391.5 250.3 391.51 251.21"/>
    <rect class="cls-1" x="276.81" y="50.2" width="53.94" height="15.3" rx="7.65" ry="7.65"/>
  </g>
  <g>
    <path class="cls-1" d="M388.51,225.13v25.17s-.01,3-.01,3l-.02,30.71v16.1s0,.01,0,.01h0s2.99,5.24,2.99,5.24v-6.04l.04.07v-49.09s0,0,0,0v-25.17h-3Z"/>
    <path class="cls-1" d="M388.51,225.13v25.17s-.01,3-.01,3l-.02,30.71v16.1s0,.01,0,.01h0s2.99,5.24,2.99,5.24v-6.04l.03-46.02v-28.17s-2.99,0-2.99,0Z"/>
    <polygon class="cls-1" points="391.51 225.13 391.51 250.3 391.5 250.3 391.51 251.21 391.51 253.3 388.5 253.3 388.5 250.3 388.51 225.13 391.51 225.13"/>
    <polygon class="cls-1" points="394.51 225.13 394.51 253.3 394.49 253.3 394.5 250.26 394.51 225.13"/>
    <polygon class="cls-1" points="391.51 225.13 391.51 250.3 391.5 250.3 391.5 250.28 391.51 225.13"/>
    <polygon class="cls-1" points="391.51 250.3 391.5 250.3 391.51 251.21 391.51 299.39 391.47 299.32 391.47 305.36 388.48 300.13 388.48 300.12 388.47 300.11 388.48 284.77 388.48 284.01 388.5 253.3 388.5 250.3 391.5 250.28 391.51 250.28 391.51 250.3"/>
    <polygon class="cls-1" points="394.51 251.17 394.51 310.72 394.46 310.63 394.46 303.95 394.49 253.3 394.5 250.26 394.51 251.17"/>
    <polygon class="cls-1" points="391.51 251.21 391.51 299.39 391.47 299.32 391.5 253.3 391.5 250.3 391.51 251.21"/>
  </g>
  <path d="M216.39,277.13l-3,1.86-8.7,119.71,5.85,3.61,14.54-8.25s-1.96-17.17-1.1-28.07c.86-10.9,5.21-87.3,5.21-87.3l-12.8-1.56Z"/>
  <polygon points="230 397.53 225.08 394.06 216.39 415.45 194.19 471.37 198.96 472.98 210.06 470.56 221.09 441.98 235.91 415.27 233.37 403.86 230 397.53"/>
  <path d="M370.58,400.56s1.49.08,4.97-1.8,56.3,95.75,56.3,95.75l-22.65,1.58-32-52.59-10.93-32.48,4.32-10.46Z"/>
  <polygon points="457.19 364.61 453.23 377.44 425.82 372.37 400.64 342.59 394.45 320.41 394.45 303.94 394.46 303.95 394.51 304 457.19 364.61"/>
  <path d="M374.73,386.3l2.16,45,64.62-64.95-6.02-15.84-30.73-9.82s-13.15-26.81-21.67-34.26"/>
  <polygon points="213.39 272.6 213.39 287.9 180.47 358.13 152.12 369.88 146.32 347.9 175.9 297.85 200.38 272.6 211.3 266.33 213.39 272.6"/>
</svg>