<?xml version="1.0" encoding="UTF-8"?>
<svg id="Layer_1" data-name="Layer 1" xmlns="http://www.w3.org/2000/svg" viewBox="0 0 616.85 616.85">
  <defs>
    <style>
      .cls-1 {
        fill: #010101;
      }
    </style>
  </defs>
  <path d="M538.86,562.3c-1.81,2.05-3.64,3.94-5.59,5.71-2.75,2.54-5.7,4.88-8.98,7.24-27.6,19.85-60.71,30.08-95.15,29l-40.59-92.67c-2.06-4.71-4.5-9.06-7.58-13.25-8.42-12-22.31-13.41-35.08-24.07l-26.2-21.87c-9.69-8.08-16.7-13.12-21.85-25.19-5.5-12.92-11.72-25.13-19.57-36.89-3.79-5.67-5.93-11.29-6.7-18.01-1.82-15.78-8.88-23.66-11.47-33.64-1.48-5.66,1.88-10.37,7.38-11.82,18.34-4.8,34.91,17.87,41.02,35.23,1.37,3.91,3.02,6.96,5.24,10.45l11.12,17.48c1.12,1.77,2.39,3.44,4.62,3.66,1.43-6.3.78-12.46.82-18.82.04-4.61-.32-8.84-1.45-13.35l-6.35-25.48c-2.91-11.67-7.64-22.24-11.95-33.39l-7.57-19.6c-4.55-11.78-7.35-23.77-12.05-35.57-2.9-7.28-4.84-14.51-6.38-22.19-1.06-5.29-1.32-10.56.16-15.86,2-7.16,9.35-11.86,16.57-9.86,5.11,1.42,8.41,5.45,10.86,9.79,9.47,16.77,14.7,36.82,26.17,56.05,3.07,5.15,5.03,10.36,7.24,15.82l10.37,25.64c1.87-5.42,3.97-9.8,8.72-12.23,7.54-3.86,16.39-2.92,23.39,1.88,4.56,3.13,7.76,7.11,11.41,11.57,6.83-6.77,20.82-4.27,27.45,1.68l11.02,9.9c5.58-2.73,11.94-2.8,17.64.27,18.65,10.03,24.42,21.29,27.45,41.84l3.49,23.67c2.24,15.27,4.01,30.16,3.72,45.66,0,.42-.01.84-.02,1.26-.1,8.13.42,15.91,3.41,23.51l45.26,106.42Z"/>
  <g>
    <path d="M216.52,264.17l.21,105.71c.04,19.71,14.53,34.09,33.88,34.19l57.01.3c-9.71,11.48-19.97,21.21-31.19,30.53-8.11,6.74-16.83,11.86-25.98,16.94-8.87,4.92-15.84,11.29-21.3,19.8-4.29,6.69-7.92,13.38-11.31,20.58l-47.03,83.23c-39.08-1.13-77.69-19.63-103.47-48.6-3.47-3.9-6.27-7.4-8.94-11.94l73.62-124.7c3.1-5.26,4.98-10.95,5.14-17.02l2-76.06c.19-7.22,1.8-13.38,5.32-19.69,9.19-16.42,17.5-32.93,23.92-50.68,2.04-5.65,3.75-10.48,6.83-15.54,4.07-6.68,8.9-13.32,11.36-20.94l4.82-24.55c1.18-6.02,5.09-9.61,11.82-8.65,6.37.91,11.61,5.54,14.43,11.65.24.52,2.11.02,2.1-.73l-.03-7.44c-1.05-.52-1.75-1.26-1.75-2.84l.04-23.42c0-1.28.8-1.82,1.85-2.11l-.02-11.53c-.47-.24-1.88-.58-2.01-1.23l-.04-12.53c0-.8,1.46-1.21,2.11-1.32l.17-38.96c.07-16.88,13.4-29.83,30.68-29.83h113.57c17.16-.01,29.61,13,30.47,29.67l.18,79.34c.58-.13,1.65.41,1.65.94l.13,43.08c0,.74-1.12,1.49-1.76,1.95v15.44c7.31-1.11,14.12.23,19.32,4.83,4.07,3.6,5.15,8.26,7.02,13.39,2.48,6.82,2.71,15.24-3.19,20.53-5.36,4.82-15.7,3.96-23.15,6.19l.06,5.45c5.35-.3,10.38-.45,15.23,1.44,6,2.35,9.93,7.85,11.34,13.3,4.23,16.33-10.17,25.64-24.83,31.88l-10.12,2.84-.21-239.65c-.01-12.09-9.27-22.22-21.44-22.22l-114.98-.03c-12.61,0-21.74,10.42-21.73,22.93l.03,301.69c0,12.51,9.31,22.48,21.44,22.52l74.9.3c1.51,2.72,2.44,5.13,3.29,8.21l-78.59-.25c-11.94-.04-22.04-6.95-26.65-17.58-2.3-5.3-2.79-10.49-2.79-16.38l-.09-152.27c-1.32,6.68-5.26,12.48-7.25,19.07-2.9,9.63-4.43,19.16-8.04,28.57-1.48,3.86-2.36,7.98-2.54,12.02l14.5-9.83Z"/>
    <rect class="cls-1" x="280.61" y="51.12" width="53.94" height="15.3" rx="7.65" ry="7.65"/>
  </g>
</svg>