<?xml version="1.0" encoding="UTF-8"?>
<svg id="Layer_1" data-name="Layer 1" xmlns="http://www.w3.org/2000/svg" viewBox="0 0 616.85 616.85">
  <defs>
    <style>
      .cls-1 {
        fill: #010101;
      }
    </style>
  </defs>
  <g id="Generative_Object" data-name="Generative Object">
    <path d="M482.07,593.66s-24.15,13.31-65.79,13.31-67.43-13.31-67.43-13.31c-2.84-10.19-7.19-53.47-32.79-74.02-14.63-11.74-24.15-27.74-32.23-44.69-7.04-14.76-13.47-29.31-17.83-45.07-.69-2.49-1-4.67-2.5-6.85-4.17-6.08-7.39-12.48-10.25-19.37l67.76-.05-30.27,43.68,34.58,34.57h25.66v-78.25h-26.21c-.08-1.17-.15-2.33-.21-3.5h15.18c11.94-.03,22.04-6.95,26.66-17.58,2.3-5.29,2.79-10.48,2.73-16.38l.03-47.05c1.27,1.66,2.56,3.3,3.87,4.93v29.28l39.49,15.45v-41.3l-25.42-9.83h-14.07l.07-87.48c9.28,9.04,16.21,18.6,23.84,28.2,8.36,11.71,17.21,22.17,26.53,33.2,7.83,9.26,13.41,20.1,13.17,32.42l-.83,42.16v44.96l.25,38.17c.84,16.26,3.83,31.37,9.24,46.68l36.77,97.72Z"/>
    <path d="M324.78,403.61h26.21v78.25h-25.66l-34.58-34.57,30.27-43.68c1.36,16.67,5.2,32.31,11.52,47.42.82-.56.57-1.64-.18-2.26-4.04-13.49-5.91-26.94-7.24-41.07-.13-1.37-.24-2.73-.34-4.09Z"/>
    <path d="M360.8,307.59c2.71,3.91,5.49,7.75,8.37,11.51l-.03,47.05c.06,5.9-.43,11.09-2.73,16.38-4.62,10.63-14.72,17.55-26.66,17.58h-15.18c-.14-2.76-.21-5.51-.21-8.25.01-10.54,1.1-20.91,3.51-31.41-.28-7.24-2.72-13.47-5.58-20.05-3.92-8.09-8.35-15.67-13.32-23.08-2.43-3.61-10.39-4.92-18.13-12.73-7.9-7.96-14.89-16.4-20.43-26.13-3.03-5.32-4.71-11.04-4.55-17.07.25-8.89,6.02-16.55,14.79-18.12,4.62-.82,9.32.57,13.08,3.27l11.92,8.57c8.2,5.9,16.07,11.08,25.18,15.22,4.72,2.16,9.4,5.12,12.13,9.45l10.62,16.83c2.35,3.73,4.75,7.38,7.22,10.97h0Z"/>
    <path d="M412.53,327.46v41.3l-39.49-15.45v-29.28c3.89,4.84,7.97,9.57,12.28,14.19l11.03,11.83-23.31-32.42h14.07l25.42,9.83Z"/>
    <path d="M169.14,320.25c-5.44-2.02-8.45-7.24-8.9-12.83-.58-7.08,2.84-12.97,9.23-16.09,3.69-1.81,7.48-3.48,10.83-6.13,3.23-1.84,6.01-3.71,10.11-4.88v40c-6.97,2.07-14.45,2.46-21.26-.07Z"/>
    <path d="M172.91,265.17c-8.88-3.85-13.93-12.41-11.59-21.62,1.78-7.01,7.21-11.65,14.48-12.38l14.05-1.4-.04,40.16c-6.28-1.12-11.51-2.43-16.9-4.76Z"/>
    <path d="M167.8,342.41c2.57-7.41,10.07-8.36,15.91-12.3,2.03-1.38,4.16-2.43,6.73-2.64v36.44c-5.71.81-11.59-.22-16.52-3.41-5.91-3.83-8.55-11.05-6.12-18.08Z"/>
  </g>
  <g>
    <path class="cls-1" d="M370.97,189.38l-.13-43.08c0-.53-1.06-1.06-1.64-.93l-.18-79.34c-.87-16.67-13.32-29.68-30.48-29.68h-113.57c-17.27.01-30.6,12.96-30.68,29.84l-.17,38.96c-.65.1-2.11.52-2.1,1.32l.04,12.53c.12.65,1.53.99,2.01,1.23l.02,11.53c-1.05.3-1.85.83-1.85,2.11l-.04,23.42c0,1.57.7,2.31,1.75,2.83v2.74s0,.25,0,.25c-.99.31-1.72.84-1.72,2.07l-.04,23.42c0,1.57.7,2.31,1.75,2.83v-2.03s0,24.91,0,24.91c.04-.14.07-.29.1-.44l.09,152.28c0,5.9.49,11.09,2.79,16.38,4.62,10.63,14.72,17.55,26.66,17.58h116.15c11.94-.03,22.04-6.95,26.66-17.58,2.3-5.29,2.79-10.48,2.73-16.38l.03-47.05v-18.37s.04-49.02.04-49.02v-25.17s.01-24.75.01-24.75v-10.46c.63-.45,1.75-1.21,1.75-1.95ZM360.8,369.33c0,12.51-9.31,22.48-21.44,22.53h-115.37c-12.13-.05-21.44-10.02-21.44-22.53l-.03-301.69c0-12.51,9.13-22.93,21.74-22.93l114.97.04c12.17,0,21.43,10.13,21.44,22.22l.15,159.57h-.01v81.04s0,61.75,0,61.75Z"/>
    <polygon class="cls-1" points="369.22 251.71 369.21 251.71 369.22 226.54 369.22 251.71"/>
    <polygon class="cls-1" points="369.18 300.73 369.21 251.71 369.22 252.62 369.22 300.8 369.18 300.73"/>
    <rect class="cls-1" x="254.52" y="51.61" width="53.94" height="15.3" rx="7.65" ry="7.65"/>
  </g>
  <polygon points="412.53 327.46 412.53 368.76 373.04 353.31 373.04 317.63 387.11 317.63 412.53 327.46"/>
  <polygon points="350.99 403.61 350.99 481.86 325.33 481.86 290.75 447.29 321.02 403.61 350.99 403.61"/>
</svg>